<svg xmlns="http://www.w3.org/2000/svg" width="28" height="28" viewBox="0 0 28 28"><title>Фигура 1</title><path d="M28 6.056c0-.09-.04-.154-.06-.193 0-.007-.01-.013-.01-.024l-.01-.034a.69.69 0 0 0-.11-.242c-.07-.096-.16-.143-.23-.18l-.01-.006c-.01-.005-.01-.01-.02-.015a.32.32 0 0 0-.19-.117l-.04-.003a.27.27 0 0 0-.04.003.228.228 0 0 0-.1-.021H6.65L5.77 1.63a.823.823 0 0 0-.8-.63H.82C.37 1 0 1.373 0 1.832c0 .459.37.833.82.833h3.51l3.81 15.443c-.44.152-.78.364-1.06.646a2.89 2.89 0 0 0-.84 2.077c0 .792.32 1.524.91 2.088a.268.268 0 0 0-.07.058 2.887 2.887 0 0 0-.84 2.078c0 1.624 1.29 2.944 2.89 2.944.78 0 1.51-.306 2.06-.865.54-.56.84-1.298.84-2.08 0-.428-.11-.849-.34-1.276h9.99c-.22.433-.33.853-.33 1.277 0 1.624 1.3 2.944 2.9 2.944.77 0 1.5-.306 2.05-.863a2.93 2.93 0 0 0 .85-2.081c0-1.617-1.3-2.938-2.9-2.945H9.13c-.69 0-1.26-.574-1.26-1.28 0-.336.13-.656.37-.898.24-.243.56-.377.9-.377h14.92c.38 0 .7-.259.8-.63L27.97 6.26c.01-.038.01-.073.01-.102a.287.287 0 0 0 .02-.102zm-1.87.833l-2.71 11H9.77l-2.71-11zM7.88 25.055a1.21 1.21 0 0 1 .36-.898c.24-.244.56-.378.89-.378.7 0 1.26.576 1.26 1.285.01.334-.12.652-.36.895s-.56.377-.9.377c-.69 0-1.25-.574-1.25-1.28zm17.26.904c-.24.243-.55.377-.89.377-.7 0-1.26-.574-1.26-1.279 0-.34.13-.66.36-.9.25-.244.56-.378.9-.378.69 0 1.26.576 1.26 1.284 0 .335-.13.654-.37.896z" fill="#333"/></svg>