<svg xmlns="http://www.w3.org/2000/svg" width="12" height="11" viewBox="0 0 12 11"><title>Фигура 7 копия 3</title><path d="M10.202.001H1.796C.807.002.001.818 0 1.819v5.423C.001 8.243.807 9.059 1.796 9.06h4.63l1.659 1.682a.867.867 0 0 0 .612.256h.002c.48 0 .871-.395.872-.88V9.06h.633c.989-.001 1.795-.817 1.796-1.818V1.819A1.811 1.811 0 0 0 10.202.001zM1.126 7.242V1.819a.678.678 0 0 1 .67-.678h8.408a.677.677 0 0 1 .669.678l.006.15v5.272a.675.675 0 0 1-.669.678H9.014a.569.569 0 0 0-.564.571v1.005L7.062 8.088a.565.565 0 0 0-.4-.169H1.796a.676.676 0 0 1-.67-.677z" fill="#777"/></svg>