<svg xmlns="http://www.w3.org/2000/svg" width="93" height="17" viewBox="0 0 93 17"><title>Фигура 17</title><path d="M55.5.156c.26-.024.36-.035.44-.037.66-.022 1.22-.439 1.43.47.19.801-.29 1.843-1.04 2.089-.69.225-1.43.305-2.15.372-1.34.136-1.88.652-2.08 2.049.52-.227 1.04-.553 1.59-.662 2.53-.501 4.4.975 4.64 3.609.25 2.648-1.43 4.767-3.85 4.847-2.83.091-4.34-1.291-4.53-4.205-.06-.938-.06-1.887-.01-2.825.18-2.952 1.47-4.309 4.34-4.502.82-.054 1.41-.118 1.22-1.205zm.57 8.566c0-1.902-.73-2.886-1.95-2.882-1.2.008-1.99 1.042-1.98 2.602.01 1.539.76 2.541 1.93 2.544.84.005 1.49-.353 1.77-1.205.14-.423.2-.877.23-1.059zM66.99 4.26h2.04c.04.267.07.515.11.78 2.12-2.228 5.47-.818 5.72 1.981.11 1.078.11 1.989-.13 3.275-.58 2.699-3.67 3.41-5.51 1.607v3.919h-2.23V4.26zm5.8 4.262c-.01-.33-.08-.843-.19-1.222-.26-.854-.7-1.3-1.66-1.316-.97-.014-1.55.534-1.66 1.413-.11.837-.11 1.771.17 2.546.17.457 1.01.965 1.51.968.5.005 1.22-.353 1.47-.884.21-.448.35-.987.36-1.505zm6.38 1.72c.47-1.72.95-3.232 1.27-4.782.21-1.05.69-1.294 1.68-1.238.37.022.57.036 1.01.036-.29.887-.55 1.631-.81 2.41-.81 2.359-1.6 4.724-2.44 7.077-.75 2.109-1.37 2.459-3.66 2.17v-1.699c.2 0 .41.025.62-.006.87-.141 1.23-.751.93-1.618-.86-2.58-1.74-5.155-2.61-7.733-.05-.15-.19-.623-.19-.623s.91-.021 2.11 0c.17.002.39.393.47.628.45 1.488.87 2.99 1.3 4.484.08.237.17.47.32.894zM5.73 12.613H3.31V3.29H0V1.289h.98c2.14 0 4.98-.007 6.74-.011.75-.001 1.25 1.622 1.32 1.948H5.73v9.387zm43.15-5.446c-.06.291-.08.452-.13.604-.65 1.769-.26 1.435-2.03 1.467-.88.013-1.76.006-2.64.006.02-1.721.35-2.077 1.84-2.077h2.96zM93 12.657h-1.96V7.184c-.07-.013-.13-.029-.2-.038-.36 1.077-.79 2.133-1.06 3.229-.24.935-.88.705-1.49.762-.6.051-.91-.142-1.08-.778-.3-1.112-.72-2.186-1.25-3.249v5.547h-2.02V4.258l2.82.001c.22 0 .42.41.51.658.44 1.185.81 2.384 1.29 3.793.45-1.39.86-2.576 1.23-3.777.14-.47.35-.667.86-.67.88-.005 1.45-.003 2.35-.005v8.399zm-30.5-2.415c.46-1.72.95-3.232 1.27-4.782.21-1.05.68-1.294 1.68-1.238.37.022.56.036 1.01.036-.3.887-.55 1.631-.81 2.41-.81 2.359-1.6 4.724-2.44 7.077-.75 2.109-1.37 2.459-3.67 2.17v-1.699c.21 0 .42.025.63-.006.86-.141 1.23-.751.93-1.618-.86-2.58-1.74-5.155-2.61-7.733-.05-.15-.2-.623-.2-.623s.92-.021 2.12 0c.17.002.39.393.47.628.44 1.488.87 2.99 1.3 4.484.07.237.17.47.32.894zM16.65 4.237h2.05c.04.268.07.516.1.781 2.13-2.229 5.47-.818 5.73 1.98.1 1.079.1 1.989-.14 3.275-.58 2.7-3.66 3.41-5.51 1.607v3.919h-2.23V4.237zm5.81 4.262c-.02-.329-.08-.843-.2-1.221-.25-.855-.69-1.301-1.66-1.317-.97-.013-1.55.535-1.66 1.413-.1.837-.11 1.771.18 2.547.17.457 1 .964 1.5.967.5.006 1.22-.352 1.48-.883.21-.449.35-.987.36-1.506zm6.38 1.721c.46-1.721.95-3.233 1.27-4.783.21-1.05.68-1.294 1.67-1.237.38.021.57.036 1.02.036-.3.887-.55 1.631-.82 2.409-.81 2.36-1.6 4.724-2.43 7.078-.76 2.108-1.38 2.458-3.67 2.17v-1.699c.21 0 .42.024.63-.006.86-.141 1.23-.751.93-1.619-.86-2.579-1.74-5.155-2.61-7.733-.05-.149-.2-.622-.2-.622s.92-.022 2.11-.001c.18.003.4.393.47.628.45 1.489.88 2.99 1.31 4.484.07.238.17.47.32.895zm13.83 2.414H40.7V7.161c-.06-.013-.13-.029-.2-.037-.35 1.076-.78 2.133-1.06 3.229-.23.934-.88.705-1.48.761-.61.051-.91-.142-1.08-.778a17.533 17.533 0 0 0-1.26-3.249v5.547h-2.01V4.236h2.82c.21 0 .41.41.5.659.44 1.184.82 2.384 1.29 3.792.46-1.39.87-2.576 1.24-3.776.14-.47.34-.668.85-.671.89-.004 1.45-.003 2.36-.004v8.398zM12.16 10.22c.47-1.721.95-3.233 1.27-4.783.21-1.05.69-1.294 1.68-1.237.37.021.57.036 1.01.036-.29.887-.55 1.631-.81 2.409-.81 2.36-1.6 4.724-2.44 7.078-.75 2.108-1.37 2.458-3.66 2.17v-1.699c.2 0 .42.024.62-.006.87-.141 1.23-.751.94-1.619C9.9 9.99 9.03 7.414 8.15 4.836c-.05-.149-.19-.622-.19-.622s.91-.022 2.11-.001c.17.003.39.393.47.628.45 1.489.87 2.99 1.31 4.484.07.238.17.47.31.895z" fill="#fff"/></svg>