<svg xmlns="http://www.w3.org/2000/svg" width="18" height="17" viewBox="0 0 18 17"><title>Фигура 44 копия</title><path d="M17.303 10.93c-.323.4-.66.49-.886.49h-3.791c.126.63.1 1.58-.486 2.86-.71 1.55-1.74 1.74-2.292 1.72-.842-.04-1.531-.59-1.711-1.1-.193-.55-.176-1.8-.157-2.38L6.316 9.49l-.121-.05c-.083.46-.413 1.19-1.041 1.19H.95c-.69 0-.948-.85-.948-1.39V.88C.002.68.071 0 .95 0h4.204c.986 0 1.063.68 1.063.88v.67c.657-.34 1.62-.77 2.293-.77h5.592c.018 0 .036.01.053.01 1.395.05 1.905.79 2.084 1.23.354.88 1.585 5.95 1.729 6.54.131.62-.192 1.77-.665 2.37zM5.016 1.22H1.203v8.02c0 .04.01.11.024.17h3.725c.031-.06.06-.14.064-.17zm11.782 7.61c-.373-1.53-1.399-5.67-1.67-6.34-.129-.32-.513-.49-1.141-.49H8.51c-.483 0-1.606.54-2.293.94v5.2l.938.37 2.039 3.72-.008.17c-.034.78-.014 1.78.078 2.07.061.1.356.32.712.31.517-.03.87-.56 1.075-1.01.799-1.76.259-2.51.248-2.52l.042-.04a.618.618 0 0 1-.153-.4c0-.34.268-.61.6-.61h4.552c.231-.22.506-1.11.458-1.37z" fill="#333"/></svg>