<svg xmlns="http://www.w3.org/2000/svg" width="26" height="26" viewBox="0 0 26 26"><title>Фигура 3</title><path d="M25.65 8.056L13.42 1.121a.79.79 0 0 0-.85 0L.35 8.056a.762.762 0 0 0-.35.642v16.533c0 .424.35.768.77.768h24.45c.43 0 .78-.344.78-.768V8.698c0-.26-.13-.5-.35-.642zm-4.87 16.407H5.22v-1.884h15.56zm0-3.422H5.22v-1.919h15.56zm0-3.456H5.22v-1.953h15.56zm0-3.49H5.22v-1.873h15.56zm3.67 10.368h-2.12v-13.01a.775.775 0 0 0-.78-.768H4.44c-.42 0-.77.344-.77.768v13.01H1.55V9.113L13 2.682l11.45 6.43z" fill="#333"/></svg>