<svg xmlns="http://www.w3.org/2000/svg" width="24" height="22" viewBox="0 0 24 22"><title>Фигура 2</title><path d="M17.03 1C15 1 13.35 1.829 12 3.532 10.65 1.829 9 1 6.97 1 2.61 1 0 4.618 0 8.115c0 2.998 1.48 5.949 4.4 8.77 2.58 2.499 5.62 4.218 7.2 5.022a.908.908 0 0 0 .8-.001c1.58-.803 4.62-2.522 7.2-5.02 2.92-2.822 4.4-5.773 4.4-8.771C24 4.618 21.39 1 17.03 1zm0 1.718c3.43 0 5.22 2.715 5.22 5.397 0 2.514-1.3 5.05-3.88 7.539-2.26 2.183-4.9 3.735-6.37 4.51-1.47-.775-4.12-2.327-6.37-4.51-2.58-2.489-3.88-5.025-3.88-7.54 0-2.68 1.79-5.396 5.22-5.396 1.87 0 3.11.783 4.28 2.703.16.259.44.42.75.42a.864.864 0 0 0 .75-.42c1.17-1.92 2.41-2.703 4.28-2.703z" fill="#333"/></svg>