<svg xmlns="http://www.w3.org/2000/svg" width="18" height="17" viewBox="0 0 18 17"><title>Фигура 44</title><path d="M17.303 6.07c-.323-.4-.66-.49-.887-.49h-3.79c.126-.63.1-1.58-.486-2.86C11.43 1.16 10.4.98 9.848 1c-.842.04-1.531.59-1.711 1.1-.193.55-.176 1.8-.157 2.38L6.316 7.51l-.121.05c-.083-.46-.413-1.19-1.041-1.19H.95c-.69 0-.948.85-.948 1.39v8.36c0 .2.069.88.948.88h4.204c.986 0 1.063-.68 1.063-.88v-.67c.657.34 1.62.77 2.293.77h5.592c.018 0 .036-.01.053-.01 1.395-.05 1.905-.79 2.084-1.24.354-.87 1.585-5.94 1.729-6.53.131-.62-.192-1.77-.665-2.37zM5.017 15.78H1.203V7.76c0-.04.01-.11.024-.17h3.725c.031.06.06.14.065.17zm11.781-7.62c-.373 1.54-1.399 5.68-1.67 6.35-.129.32-.513.49-1.141.49H8.51c-.483 0-1.606-.54-2.293-.94v-5.2l.938-.38 2.039-3.71-.008-.17c-.034-.78-.014-1.78.077-2.07.062-.1.357-.32.713-.31.517.02.87.56 1.075 1.01.799 1.75.259 2.5.248 2.52l.042.04a.618.618 0 0 0-.153.4c0 .34.268.61.6.61h4.552c.231.22.506 1.11.458 1.36z" fill="#333"/></svg>