<svg xmlns="http://www.w3.org/2000/svg" width="11" height="15" viewBox="0 0 11 15"><title>Фигура 24</title><path d="M9.85 5.71H3.1V3.572c0-.78.6-1.41 1.34-1.41h2.33c.74 0 1.33.63 1.33 1.41v.133c0 .315.26.58.55.58.3 0 .56-.265.56-.58V3.57C9.21 2.16 8.1 1 6.77 1H4.44C3.1 1 2 2.16 2 3.57v2.157h-.85C.52 5.727 0 6.275 0 6.938v6.85C0 14.453.52 15 1.15 15h8.7c.63 0 1.15-.548 1.15-1.211v-6.85c0-.68-.52-1.228-1.15-1.228zm.05 8.079c0 .033-.03.05-.05.05H1.16c-.03 0-.04-.034-.04-.05v-6.85c0-.034.03-.05.04-.05h8.71c.03 0 .04.032.04.05v6.85zM5.51 9.128c.68 0 1.24.586 1.24 1.31 0 .724-.56 1.31-1.24 1.31-.69 0-1.25-.586-1.25-1.31 0-.724.56-1.31 1.25-1.31z" fill="#fb2539"/></svg>