<svg xmlns="http://www.w3.org/2000/svg" width="21" height="15" viewBox="0 0 21 15"><title>Фигура 21</title><path d="M.81 1.666h16.11a.82.82 0 0 0 .81-.833.82.82 0 0 0-.81-.833H.81A.82.82 0 0 0 0 .833c0 .46.36.833.81.833zm0 4.376h13.71a.82.82 0 0 0 .81-.834.82.82 0 0 0-.81-.833H.81a.82.82 0 0 0-.81.833c0 .46.36.834.81.834zm18.4 2.791H.81a.82.82 0 0 0-.81.833c0 .46.36.834.81.834h18.4c.44 0 .8-.374.8-.834 0-.46-.36-.833-.8-.833zm-12.12 4.5H.81a.82.82 0 0 0-.81.834c0 .46.36.833.81.833h6.28a.82.82 0 0 0 .81-.833.82.82 0 0 0-.81-.834z" fill="#ebc712"/></svg>