<svg xmlns="http://www.w3.org/2000/svg" width="20" height="21" viewBox="0 0 20 21"><title>Фигура 23</title><path d="M9.253 5.139c0-2.317-1.632-4.141-4.141-4.141C2.628.998.996 2.822.996 5.139c0 2.293 1.632 4.043 4.116 4.043 2.509 0 4.141-1.75 4.141-4.043zm-6.065 0c0-1.38.828-2.194 1.924-2.194 1.12 0 1.924.814 1.924 2.194 0 1.282-.804 2.12-1.924 2.12-1.096 0-1.924-.838-1.924-2.12zm12.839-3.913h-.458a.672.672 0 0 0-.567.315L4.342 18.435c-.286.453.035 1.046.566 1.046h.433c.23 0 .443-.118.566-.313L16.593 2.273c.287-.452-.034-1.047-.566-1.047zm-.226 10.456c-2.518 0-4.172 1.85-4.172 4.199 0 2.324 1.654 4.122 4.172 4.122 2.519 0 4.197-1.798 4.197-4.122 0-2.349-1.678-4.199-4.197-4.199zm0 6.372c-1.135 0-1.95-.824-1.95-2.173 0-1.375.815-2.225 1.95-2.225 1.136 0 1.976.85 1.976 2.225 0 1.349-.84 2.173-1.976 2.173z" fill="#ebc712"/></svg>