<svg xmlns="http://www.w3.org/2000/svg" width="21" height="21" viewBox="0 0 21 21"><title>Фигура 20</title><path d="M10.5 0C4.71 0 0 4.71 0 10.5S4.71 21 10.5 21 21 16.29 21 10.5 16.29 0 10.5 0zm0 19.303c-4.85 0-8.8-3.949-8.8-8.803 0-4.854 3.95-8.803 8.8-8.803 4.85 0 8.8 3.949 8.8 8.803 0 4.854-3.95 8.803-8.8 8.803zm0-5.369c-.66 0-1.24.58-1.24 1.243 0 .662.58 1.243 1.24 1.243s1.24-.581 1.24-1.243c0-.663-.58-1.243-1.24-1.243zm-.1-9.145c-1.23 0-2.26.63-2.83 1.717a.846.846 0 0 0-.08.709c.07.215.23.39.44.482.13.072.27.111.42.111.32 0 .62-.197.74-.491.24-.469.72-.76 1.26-.76.77 0 1.42.651 1.42 1.421 0 .548-.42.926-.95 1.411l-.1.096c-.56.559-1.26 1.253-1.26 2.335v.461c0 .512.37.884.89.884.51 0 .88-.372.88-.884v-.512c0-.359.35-.7.8-1.109.53-.482 1.51-1.379 1.51-2.733 0-1.701-1.44-3.138-3.14-3.138z" fill="#ebc712"/></svg>