<svg xmlns="http://www.w3.org/2000/svg" width="20" height="21" viewBox="0 0 20 21"><title>Фигура 42</title><path d="M16.388 7.207a3.598 3.598 0 0 0-2.807 1.35L7.959 5.514c.128-.361.212-.742.212-1.146C8.171 2.428 6.559.85 4.579.85S.988 2.428.988 4.368c0 1.941 1.611 3.518 3.591 3.518a3.598 3.598 0 0 0 2.797-1.337l5.628 3.046a3.404 3.404 0 0 0-.207 1.13c0 .558.145 1.078.381 1.547l-5.612 3.143a3.609 3.609 0 0 0-2.987-1.57c-1.98 0-3.591 1.577-3.591 3.517s1.611 3.519 3.591 3.519c1.98 0 3.592-1.579 3.592-3.519 0-.297-.05-.582-.121-.858l5.833-3.265a3.616 3.616 0 0 0 2.505 1.004c1.98 0 3.59-1.578 3.59-3.518 0-1.94-1.61-3.518-3.59-3.518zM4.579 6.705c-1.314 0-2.384-1.048-2.384-2.337 0-1.287 1.07-2.335 2.384-2.335 1.315 0 2.385 1.048 2.385 2.335 0 1.289-1.07 2.337-2.385 2.337zm0 12.994c-1.314 0-2.384-1.048-2.384-2.337 0-1.287 1.07-2.336 2.384-2.336 1.315 0 2.385 1.049 2.385 2.336 0 1.289-1.07 2.337-2.385 2.337zm11.809-6.638c-1.316 0-2.386-1.048-2.386-2.336 0-1.288 1.07-2.336 2.386-2.336 1.314 0 2.384 1.048 2.384 2.336 0 1.288-1.07 2.336-2.384 2.336z" fill="#333"/></svg>