<svg xmlns="http://www.w3.org/2000/svg" width="22" height="37" viewBox="0 0 22 37"><title>Фигура 39</title><path d="M6.424 29.752c1.071-.193 2.449-1.037 2.449-2.725 0-1.987-1.667-3.13-3.843-3.13-1.752 0-3.061.792-3.878 1.812l.783.913c.833-.931 1.751-1.424 2.993-1.424 1.377 0 2.534.704 2.534 2.005 0 1.354-1.208 1.935-2.637 1.935-.458 0-.985 0-1.172-.018v1.335c.17-.016.697-.016 1.172-.016 1.667 0 2.824.615 2.824 2.075 0 1.353-1.004 2.197-2.653 2.197-1.343 0-2.5-.633-3.163-1.547l-.834.914c.697 1.055 2.109 1.935 4.031 1.935 2.499 0 4.013-1.425 4.013-3.377 0-1.881-1.581-2.795-2.619-2.884zm8.761-5.679h-3.877v11.729h3.877c3.52 0 5.816-2.515 5.816-5.856 0-3.324-2.296-5.873-5.816-5.873zm0 10.427H12.72v-9.125h2.465c2.806 0 4.353 2.04 4.353 4.571 0 2.515-1.598 4.554-4.353 4.554zm5.239-18.491l-.028-10.282-.005-.077a.749.749 0 0 0-.356-.569L11.763.109a.717.717 0 0 0-.726.001L2.385 5.275l-.099.074a.756.756 0 0 0-.263.581l.028 10.277c0 .267.139.515.36.647l8.274 4.972a.732.732 0 0 0 .447.095l.023.021 8.905-5.282a.755.755 0 0 0 .364-.651zm-1.449-.43l-7.208 4.303-.024-8.556 7.208-4.302zm-.748-9.853l-7.207 4.303-6.829-4.103 7.207-4.303zm-14.753 1.5l6.822 4.101.022 8.546-6.822-4.099z" fill="#fb2539"/></svg>