<svg xmlns="http://www.w3.org/2000/svg" width="34" height="23" viewBox="0 0 34 23"><title>Фигура 4</title><path d="M32.9 10.326l-5.08-8.773a.755.755 0 0 0-.7-.5h-8.47A1.83 1.83 0 0 0 17 0c-.73 0-1.35.43-1.65 1.054H6.9c-.3 0-.56.178-.67.435a.174.174 0 0 0-.04.054L1.1 10.327a.737.737 0 0 0-.07.594c0 .064-.01.127-.01.191 0 3.479 2.39 5.908 5.81 5.908 3.42 0 5.81-2.43 5.81-5.908 0-.063-.01-.126-.01-.189a.784.784 0 0 0-.07-.597l-4.5-7.758h7.23c.17.46.52.83.97 1.03v17.887h-5.74c-.41 0-.74.339-.74.757s.33.757.74.757h12.96c.41 0 .74-.339.74-.757a.748.748 0 0 0-.74-.757h-5.74V3.598c.45-.2.8-.57.97-1.03h7.23l-4.5 7.758a.746.746 0 0 0-.07.599c0 .062-.01.125-.01.188 0 3.478 2.39 5.907 5.81 5.907 3.42 0 5.81-2.43 5.81-5.907 0-.064-.01-.127-.01-.19a.742.742 0 0 0-.07-.597zM6.83 15.505c-2.49 0-4.15-1.556-4.31-4h8.62c-.16 2.444-1.82 4-4.31 4zm3.81-5.515H3.02l3.81-6.572zm7.05-8.11c0 .386-.31.7-.69.7a.697.697 0 0 1-.69-.7c0-.387.31-.702.69-.702.38 0 .69.315.69.702zm9.48 1.538l3.81 6.572h-7.62zm0 12.087c-2.49 0-4.15-1.556-4.31-4h8.62c-.16 2.444-1.82 4-4.31 4z" fill="#333"/></svg>